<svg xmlns="http://www.w3.org/2000/svg" xmlns:xlink="http://www.w3.org/1999/xlink" width="48" zoomAndPan="magnify" viewBox="0 0 36 30.000001" height="40" preserveAspectRatio="xMidYMid meet" version="1.0"><defs><g/><clipPath id="3daad2ddbd"><path d="M 0.582031 0 L 35.417969 0 L 35.417969 29.03125 L 0.582031 29.03125 Z M 0.582031 0 " clip-rule="nonzero"/></clipPath><clipPath id="c098442cb0"><path d="M 0.582031 0 L 17 0 L 17 19 L 0.582031 19 Z M 0.582031 0 " clip-rule="nonzero"/></clipPath><clipPath id="6588772a04"><path d="M 0.746094 22.035156 L 35.417969 22.035156 L 35.417969 29.03125 L 0.746094 29.03125 Z M 0.746094 22.035156 " clip-rule="nonzero"/></clipPath></defs><g clip-path="url(#3daad2ddbd)"><path fill="#ffffff" d="M 0.582031 0 L 35.417969 0 L 35.417969 29.03125 L 0.582031 29.03125 Z M 0.582031 0 " fill-opacity="1" fill-rule="nonzero"/><path fill="#ffffff" d="M 0.582031 0 L 35.417969 0 L 35.417969 29.03125 L 0.582031 29.03125 Z M 0.582031 0 " fill-opacity="1" fill-rule="nonzero"/></g><g fill="#ff1b1b" fill-opacity="1"><g transform="translate(16.676794, 18.354473)"><g><path d="M 0.03125 0 L 0.03125 -0.25 L 0.828125 -0.25 C 1.335938 -0.25 1.742188 -0.390625 2.046875 -0.671875 C 2.347656 -0.953125 2.625 -1.453125 2.875 -2.171875 L 8.421875 -17.828125 L 10.015625 -17.828125 L 16.078125 -1.703125 C 16.296875 -1.148438 16.519531 -0.769531 16.75 -0.5625 C 16.988281 -0.351562 17.296875 -0.25 17.671875 -0.25 L 17.921875 -0.25 L 17.921875 0 L 10.6875 0 L 10.6875 -0.25 L 11.484375 -0.25 C 12.046875 -0.25 12.453125 -0.316406 12.703125 -0.453125 C 12.953125 -0.597656 13.078125 -0.851562 13.078125 -1.21875 C 13.078125 -1.351562 13.0625 -1.515625 13.03125 -1.703125 C 13 -1.898438 12.941406 -2.113281 12.859375 -2.34375 L 11.359375 -6.484375 L 4.6875 -6.484375 L 3.296875 -2.578125 C 3.210938 -2.328125 3.144531 -2.101562 3.09375 -1.90625 C 3.039062 -1.71875 3.015625 -1.539062 3.015625 -1.375 C 3.015625 -0.957031 3.1875 -0.664062 3.53125 -0.5 C 3.875 -0.332031 4.425781 -0.25 5.1875 -0.25 L 6.09375 -0.25 L 6.09375 0 Z M 4.765625 -6.734375 L 11.265625 -6.734375 L 9.515625 -11.53125 C 9.234375 -12.3125 8.957031 -13.097656 8.6875 -13.890625 C 8.425781 -14.679688 8.210938 -15.410156 8.046875 -16.078125 C 7.804688 -15.378906 7.570312 -14.710938 7.34375 -14.078125 C 7.125 -13.453125 6.875 -12.726562 6.59375 -11.90625 Z M 4.765625 -6.734375 "/></g></g></g><g clip-path="url(#c098442cb0)"><g fill="#000091" fill-opacity="1"><g transform="translate(-0.0584901, 18.354473)"><g><path d="M 0.875 0 L 0.875 -0.25 L 1.390625 -0.25 C 1.972656 -0.25 2.425781 -0.378906 2.75 -0.640625 C 3.082031 -0.910156 3.25 -1.351562 3.25 -1.96875 L 3.25 -15.9375 C 3.25 -16.507812 3.082031 -16.925781 2.75 -17.1875 C 2.425781 -17.445312 1.972656 -17.578125 1.390625 -17.578125 L 0.875 -17.578125 L 0.875 -17.828125 L 7.96875 -17.828125 C 10.175781 -17.828125 11.816406 -17.425781 12.890625 -16.625 C 13.960938 -15.832031 14.5 -14.6875 14.5 -13.1875 C 14.5 -12.238281 14.3125 -11.453125 13.9375 -10.828125 C 13.570312 -10.210938 13.085938 -9.71875 12.484375 -9.34375 C 11.878906 -8.96875 11.253906 -8.691406 10.609375 -8.515625 L 13.90625 -3.21875 C 14.425781 -2.40625 14.851562 -1.785156 15.1875 -1.359375 C 15.519531 -0.929688 15.804688 -0.640625 16.046875 -0.484375 C 16.296875 -0.328125 16.546875 -0.25 16.796875 -0.25 L 16.875 -0.25 L 16.875 0 L 16.375 0 C 15.34375 0 14.523438 -0.0507812 13.921875 -0.15625 C 13.328125 -0.269531 12.835938 -0.488281 12.453125 -0.8125 C 12.078125 -1.132812 11.6875 -1.617188 11.28125 -2.265625 L 7.609375 -8.3125 L 6.140625 -8.3125 L 6.140625 -1.96875 C 6.140625 -1.351562 6.300781 -0.910156 6.625 -0.640625 C 6.945312 -0.378906 7.398438 -0.25 7.984375 -0.25 L 8.515625 -0.25 L 8.515625 0 Z M 6.140625 -8.5625 L 7.8125 -8.5625 C 9.09375 -8.5625 10.007812 -8.90625 10.5625 -9.59375 C 11.125 -10.289062 11.40625 -11.429688 11.40625 -13.015625 C 11.40625 -14.628906 11.125 -15.789062 10.5625 -16.5 C 10 -17.21875 9.066406 -17.578125 7.765625 -17.578125 L 6.140625 -17.578125 Z M 6.140625 -8.5625 "/></g></g></g></g><g clip-path="url(#6588772a04)"><path fill="#ffffff" d="M 0.746094 22.035156 L 35.582031 22.035156 L 35.582031 29.03125 L 0.746094 29.03125 Z M 0.746094 22.035156 " fill-opacity="1" fill-rule="nonzero"/></g><g fill="#3b3937" fill-opacity="1"><g transform="translate(11.139752, 24.639764)"><g><path d="M 6.421875 0.25 C 4.648438 0.25 3.316406 -0.0859375 2.421875 -0.765625 C 1.523438 -1.453125 1.078125 -2.269531 1.078125 -3.21875 C 1.078125 -3.851562 1.265625 -4.328125 1.640625 -4.640625 C 2.023438 -4.960938 2.523438 -5.125 3.140625 -5.125 C 3.160156 -3.300781 3.46875 -1.988281 4.0625 -1.1875 C 4.664062 -0.394531 5.539062 0 6.6875 0 C 7.738281 0 8.59375 -0.296875 9.25 -0.890625 C 9.90625 -1.492188 10.234375 -2.378906 10.234375 -3.546875 C 10.234375 -4.304688 10.082031 -4.925781 9.78125 -5.40625 C 9.488281 -5.882812 9.03125 -6.304688 8.40625 -6.671875 C 7.789062 -7.046875 6.992188 -7.460938 6.015625 -7.921875 C 5.203125 -8.285156 4.445312 -8.695312 3.75 -9.15625 C 3.050781 -9.613281 2.488281 -10.171875 2.0625 -10.828125 C 1.632812 -11.492188 1.421875 -12.335938 1.421875 -13.359375 C 1.421875 -14.867188 1.921875 -16.03125 2.921875 -16.84375 C 3.921875 -17.664062 5.273438 -18.078125 6.984375 -18.078125 C 8.484375 -18.078125 9.675781 -17.789062 10.5625 -17.21875 C 11.457031 -16.65625 11.90625 -15.984375 11.90625 -15.203125 C 11.90625 -14.691406 11.703125 -14.28125 11.296875 -13.96875 C 10.890625 -13.664062 10.335938 -13.515625 9.640625 -13.515625 C 9.640625 -14.941406 9.414062 -16.007812 8.96875 -16.71875 C 8.53125 -17.4375 7.796875 -17.796875 6.765625 -17.796875 C 5.878906 -17.796875 5.144531 -17.535156 4.5625 -17.015625 C 3.988281 -16.492188 3.703125 -15.664062 3.703125 -14.53125 C 3.703125 -13.769531 3.84375 -13.140625 4.125 -12.640625 C 4.414062 -12.140625 4.875 -11.695312 5.5 -11.3125 C 6.125 -10.925781 6.921875 -10.519531 7.890625 -10.09375 C 8.816406 -9.6875 9.632812 -9.265625 10.34375 -8.828125 C 11.050781 -8.390625 11.601562 -7.851562 12 -7.21875 C 12.40625 -6.582031 12.609375 -5.78125 12.609375 -4.8125 C 12.609375 -3.269531 12.070312 -2.039062 11 -1.125 C 9.925781 -0.207031 8.398438 0.25 6.421875 0.25 Z M 6.421875 0.25 "/></g></g></g><g fill="#967f71" fill-opacity="1"><g transform="translate(3.534465, 27.580645)"><g><path d="M 3.953125 -1.472656 C 3.953125 -1.628906 3.917969 -1.898438 3.875 -2.054688 L 2.683594 -2.054688 C 2.753906 -1.917969 2.820312 -1.664062 2.820312 -1.410156 C 2.820312 -1.402344 2.820312 -1.386719 2.820312 -1.375 C 2.8125 -0.941406 2.527344 -0.707031 2.246094 -0.707031 C 1.890625 -0.707031 1.621094 -0.984375 1.621094 -1.472656 L 1.621094 -4.773438 C 1.621094 -5.398438 1.871094 -5.609375 2.246094 -5.609375 C 2.457031 -5.609375 2.769531 -5.453125 2.769531 -5.050781 C 2.769531 -4.886719 2.726562 -4.6875 2.65625 -4.496094 L 3.851562 -4.496094 C 3.882812 -4.632812 3.917969 -4.816406 3.917969 -5.035156 C 3.917969 -5.851562 3.273438 -6.472656 2.222656 -6.472656 C 0.941406 -6.472656 0.382812 -5.808594 0.382812 -4.753906 L 0.382812 -1.601562 C 0.382812 -0.609375 0.878906 0.15625 2.167969 0.15625 C 3.414062 0.15625 3.953125 -0.46875 3.953125 -1.472656 Z M 3.953125 -1.472656 "/></g></g></g><g fill="#967f71" fill-opacity="1"><g transform="translate(7.758679, 27.580645)"><g><path d="M 3.902344 -1.324219 L 3.902344 -3.058594 C 3.902344 -3.882812 3.285156 -4.539062 2.117188 -4.539062 C 0.921875 -4.539062 0.367188 -3.804688 0.367188 -3.046875 L 0.367188 -1.316406 C 0.367188 -0.46875 0.976562 0.15625 2.152344 0.15625 C 3.351562 0.15625 3.902344 -0.558594 3.902344 -1.324219 Z M 2.753906 -1.21875 C 2.753906 -0.84375 2.542969 -0.601562 2.152344 -0.601562 C 1.769531 -0.601562 1.515625 -0.886719 1.515625 -1.21875 L 1.515625 -3.179688 C 1.515625 -3.519531 1.734375 -3.796875 2.109375 -3.796875 C 2.515625 -3.796875 2.753906 -3.519531 2.753906 -3.179688 Z M 2.753906 -1.21875 "/></g></g></g><g fill="#967f71" fill-opacity="1"><g transform="translate(12.02644, 27.580645)"><g><path d="M 4.484375 -0.84375 C 4.3125 -0.84375 4.121094 -1.054688 4.121094 -1.296875 L 4.121094 -3.414062 C 4.121094 -4.03125 3.597656 -4.484375 3.003906 -4.484375 C 2.527344 -4.484375 2.132812 -4.25 1.933594 -3.972656 C 1.890625 -3.910156 1.855469 -3.875 1.828125 -3.875 C 1.804688 -3.875 1.777344 -3.910156 1.757812 -3.964844 L 1.585938 -4.382812 L 0.59375 -4.382812 L 0.242188 -3.535156 C 0.453125 -3.535156 0.617188 -3.328125 0.617188 -3.09375 L 0.617188 -1.296875 C 0.617188 -1.027344 0.425781 -0.84375 0.261719 -0.84375 L 0.617188 0 L 1.75 0 L 2.089844 -0.84375 C 1.917969 -0.84375 1.75 -1.046875 1.75 -1.296875 L 1.75 -2.8125 C 1.75 -3.214844 2.0625 -3.578125 2.421875 -3.578125 C 2.769531 -3.578125 2.996094 -3.371094 2.996094 -2.867188 L 2.996094 -1.296875 C 2.996094 -1.011719 2.796875 -0.84375 2.613281 -0.84375 L 2.96875 0 L 4.136719 0 Z M 4.484375 -0.84375 "/></g></g></g><g fill="#967f71" fill-opacity="1"><g transform="translate(16.729689, 27.580645)"><g><path d="M 4.484375 -0.84375 C 4.3125 -0.84375 4.121094 -1.054688 4.121094 -1.296875 L 4.121094 -3.414062 C 4.121094 -4.03125 3.597656 -4.484375 3.003906 -4.484375 C 2.527344 -4.484375 2.132812 -4.25 1.933594 -3.972656 C 1.890625 -3.910156 1.855469 -3.875 1.828125 -3.875 C 1.804688 -3.875 1.777344 -3.910156 1.757812 -3.964844 L 1.585938 -4.382812 L 0.59375 -4.382812 L 0.242188 -3.535156 C 0.453125 -3.535156 0.617188 -3.328125 0.617188 -3.09375 L 0.617188 -1.296875 C 0.617188 -1.027344 0.425781 -0.84375 0.261719 -0.84375 L 0.617188 0 L 1.75 0 L 2.089844 -0.84375 C 1.917969 -0.84375 1.75 -1.046875 1.75 -1.296875 L 1.75 -2.8125 C 1.75 -3.214844 2.0625 -3.578125 2.421875 -3.578125 C 2.769531 -3.578125 2.996094 -3.371094 2.996094 -2.867188 L 2.996094 -1.296875 C 2.996094 -1.011719 2.796875 -0.84375 2.613281 -0.84375 L 2.96875 0 L 4.136719 0 Z M 4.484375 -0.84375 "/></g></g></g><g fill="#967f71" fill-opacity="1"><g transform="translate(21.432938, 27.580645)"><g><path d="M 3.824219 -1.941406 L 3.824219 -3.109375 C 3.824219 -3.910156 3.1875 -4.539062 2.089844 -4.539062 C 0.90625 -4.539062 0.367188 -3.894531 0.367188 -3.074219 L 0.367188 -1.339844 C 0.367188 -0.660156 0.808594 0.15625 2.117188 0.15625 C 3.476562 0.15625 3.796875 -0.671875 3.796875 -1.160156 C 3.796875 -1.210938 3.789062 -1.253906 3.789062 -1.296875 L 2.640625 -1.296875 C 2.65625 -1.238281 2.664062 -1.183594 2.664062 -1.125 C 2.664062 -0.863281 2.480469 -0.601562 2.117188 -0.601562 C 1.734375 -0.601562 1.515625 -0.828125 1.515625 -1.296875 L 1.515625 -1.941406 Z M 2.691406 -2.664062 L 1.507812 -2.664062 L 1.507812 -3.160156 C 1.507812 -3.535156 1.722656 -3.796875 2.117188 -3.796875 C 2.449219 -3.796875 2.691406 -3.5 2.691406 -3.160156 Z M 2.691406 -2.664062 "/></g></g></g><g fill="#967f71" fill-opacity="1"><g transform="translate(25.58748, 27.580645)"><g><path d="M 3.632812 -3.152344 C 3.632812 -3.996094 3.039062 -4.539062 2.019531 -4.539062 C 1.097656 -4.539062 0.367188 -4.058594 0.367188 -2.960938 L 0.367188 -1.417969 C 0.367188 -0.46875 1 0.15625 2.046875 0.15625 C 2.953125 0.15625 3.625 -0.402344 3.625 -1.246094 C 3.625 -1.304688 3.613281 -1.367188 3.605469 -1.4375 L 2.429688 -1.4375 C 2.464844 -1.304688 2.480469 -1.203125 2.480469 -1.105469 C 2.480469 -0.6875 2.175781 -0.601562 2.054688 -0.601562 C 1.757812 -0.601562 1.53125 -0.792969 1.53125 -1.203125 L 1.53125 -3.195312 C 1.53125 -3.554688 1.679688 -3.796875 2.046875 -3.796875 C 2.265625 -3.796875 2.480469 -3.648438 2.480469 -3.328125 C 2.480469 -3.238281 2.472656 -3.152344 2.4375 -3.046875 L 3.625 -3.046875 C 3.625 -3.082031 3.632812 -3.117188 3.632812 -3.152344 Z M 3.632812 -3.152344 "/></g></g></g><g fill="#967f71" fill-opacity="1"><g transform="translate(29.480732, 27.580645)"><g><path d="M 2.910156 -0.855469 C 2.910156 -0.878906 2.855469 -0.914062 2.820312 -0.914062 C 2.8125 -0.914062 2.804688 -0.914062 2.796875 -0.90625 C 2.707031 -0.828125 2.570312 -0.773438 2.421875 -0.773438 C 2.140625 -0.773438 1.828125 -0.933594 1.828125 -1.351562 L 1.828125 -3.457031 C 1.828125 -3.65625 1.925781 -3.726562 2.167969 -3.726562 C 2.28125 -3.726562 2.414062 -3.710938 2.515625 -3.675781 L 2.804688 -4.382812 L 1.847656 -4.382812 L 1.847656 -5.453125 L 0.707031 -5.164062 L 0.707031 -4.484375 C 0.707031 -4.40625 0.679688 -4.382812 0.617188 -4.382812 L 0.304688 -4.382812 L 0.0429688 -3.691406 L 0.433594 -3.691406 C 0.628906 -3.691406 0.707031 -3.570312 0.707031 -3.449219 L 0.707031 -1.0625 C 0.707031 -0.3125 1.246094 0.105469 1.976562 0.105469 C 2.082031 0.105469 2.394531 0.0976562 2.507812 0.078125 Z M 2.910156 -0.855469 "/></g></g></g></svg>