<svg width="22" height="23" viewBox="0 0 22 23" fill="none" xmlns="http://www.w3.org/2000/svg">
<path d="M17.7154 5.53696C18.3334 6.50382 18.3334 7.84976 18.3334 10.5416C18.3334 13.2335 18.3334 14.5795 17.7154 15.5463C17.4479 15.9649 17.1041 16.3243 16.7038 16.6039C15.8959 17.1683 14.8112 17.2397 12.8334 17.2487V17.25L11.8199 19.369C11.4821 20.0753 10.5179 20.0753 10.1801 19.369L9.16669 17.25V17.2487C7.18879 17.2397 6.10417 17.1683 5.29626 16.6039C4.8959 16.3243 4.55215 15.9649 4.28463 15.5463C3.66669 14.5795 3.66669 13.2335 3.66669 10.5416C3.66669 7.84976 3.66669 6.50382 4.28463 5.53696C4.55215 5.1184 4.8959 4.75902 5.29626 4.47935C6.22108 3.83331 7.50851 3.83331 10.0834 3.83331H11.9167C14.4915 3.83331 15.779 3.83331 16.7038 4.47935C17.1041 4.75902 17.4479 5.1184 17.7154 5.53696Z" stroke="#F4F6FA" stroke-linecap="round" stroke-linejoin="round"/>
<path d="M8.25 8.625L13.75 8.625" stroke="white" stroke-linecap="round" stroke-linejoin="round"/>
<path d="M8.25 12.4583H11" stroke="white" stroke-linecap="round" stroke-linejoin="round"/>
</svg>
