<svg width="18" height="18" viewBox="0 0 18 18" fill="none" xmlns="http://www.w3.org/2000/svg">
<path d="M1 6.25C1 3.65728 1 2.36091 1.87868 1.55546C2.75736 0.75 4.17157 0.75 7 0.75H11C13.8284 0.75 15.2426 0.75 16.1213 1.55546C17 2.36091 17 3.65728 17 6.25V12.5086C17 14.9683 17 16.1982 16.1557 16.5743C15.3114 16.9505 14.2565 16.1907 12.1465 14.671L11.4713 14.1847C10.2849 13.3302 9.69173 12.903 9 12.903C8.30827 12.903 7.71509 13.3302 6.52871 14.1847L5.85346 14.671C3.74355 16.1907 2.68859 16.9505 1.84429 16.5743C1 16.1982 1 14.9683 1 12.5086V6.25Z" stroke="#33363F"/>
</svg>
