<svg width="20" height="20" viewBox="0 0 20 20" fill="none" xmlns="http://www.w3.org/2000/svg">
<g opacity="0.7" filter="url(#filter0_d_52_203)">
<path fill-rule="evenodd" clip-rule="evenodd" d="M10.3964 8.79554C11.3128 8.28352 13.5 6.81857 13.5 4.5C13.5 2.567 11.933 1 10 1C8.067 1 6.5 2.567 6.5 4.5C6.5 6.81857 8.68718 8.28352 9.60356 8.79554C9.85223 8.93449 10.1478 8.93449 10.3964 8.79554ZM10 6C10.8284 6 11.5 5.32843 11.5 4.5C11.5 3.67157 10.8284 3 10 3C9.17157 3 8.5 3.67157 8.5 4.5C8.5 5.32843 9.17157 6 10 6Z" fill="#7E869E" fill-opacity="0.25"/>
<path d="M10.3964 8.79554L10.1038 8.27176L10.3964 8.79554ZM9.60356 8.79554L9.89622 8.27176H9.89622L9.60356 8.79554ZM12.9 4.5C12.9 5.4585 12.4499 6.26617 11.85 6.91936C11.2487 7.57401 10.5334 8.03172 10.1038 8.27176L10.6891 9.31933C11.1759 9.04733 12.0123 8.51656 12.7338 7.73109C13.4565 6.94416 14.1 5.86007 14.1 4.5H12.9ZM10 1.6C11.6016 1.6 12.9 2.89837 12.9 4.5H14.1C14.1 2.23563 12.2644 0.4 10 0.4V1.6ZM7.1 4.5C7.1 2.89837 8.39837 1.6 10 1.6V0.4C7.73563 0.4 5.9 2.23563 5.9 4.5H7.1ZM9.89622 8.27176C9.46663 8.03173 8.75131 7.57402 8.15004 6.91936C7.55011 6.26617 7.1 5.4585 7.1 4.5H5.9C5.9 5.86007 6.54348 6.94416 7.26624 7.73109C7.98766 8.51656 8.82411 9.04733 9.3109 9.31933L9.89622 8.27176ZM10.1038 8.27176C10.037 8.30908 9.96302 8.30908 9.89622 8.27176L9.3109 9.31933C9.74144 9.55989 10.2586 9.55989 10.6891 9.31933L10.1038 8.27176ZM10.9 4.5C10.9 4.99706 10.4971 5.4 10 5.4V6.6C11.1598 6.6 12.1 5.6598 12.1 4.5H10.9ZM10 3.6C10.4971 3.6 10.9 4.00294 10.9 4.5H12.1C12.1 3.3402 11.1598 2.4 10 2.4V3.6ZM9.1 4.5C9.1 4.00294 9.50294 3.6 10 3.6V2.4C8.8402 2.4 7.9 3.3402 7.9 4.5H9.1ZM10 5.4C9.50294 5.4 9.1 4.99706 9.1 4.5H7.9C7.9 5.6598 8.8402 6.6 10 6.6V5.4Z" fill="#222222"/>
<path d="M13.8971 8.75C14.2921 8.97803 14.5 9.23669 14.5 9.5C14.5 9.7633 14.2921 10.022 13.8971 10.25C13.5022 10.478 12.9341 10.6674 12.25 10.799C11.5659 10.9307 10.7899 11 10 11C9.21009 11 8.43409 10.9307 7.75 10.799C7.06591 10.6674 6.49784 10.478 6.10289 10.25C5.70793 10.022 5.5 9.76331 5.5 9.5C5.5 9.2367 5.70793 8.97803 6.10289 8.75" stroke="#222222" stroke-width="1.2" stroke-linecap="round"/>
</g>
<defs>
<filter id="filter0_d_52_203" x="0" y="0" width="20" height="20" filterUnits="userSpaceOnUse" color-interpolation-filters="sRGB">
<feFlood flood-opacity="0" result="BackgroundImageFix"/>
<feColorMatrix in="SourceAlpha" type="matrix" values="0 0 0 0 0 0 0 0 0 0 0 0 0 0 0 0 0 0 127 0" result="hardAlpha"/>
<feOffset dy="4"/>
<feGaussianBlur stdDeviation="2"/>
<feComposite in2="hardAlpha" operator="out"/>
<feColorMatrix type="matrix" values="0 0 0 0 0 0 0 0 0 0 0 0 0 0 0 0 0 0 0.25 0"/>
<feBlend mode="normal" in2="BackgroundImageFix" result="effect1_dropShadow_52_203"/>
<feBlend mode="normal" in="SourceGraphic" in2="effect1_dropShadow_52_203" result="shape"/>
</filter>
</defs>
</svg>
