<svg width="21" height="20" viewBox="0 0 21 20" fill="none" xmlns="http://www.w3.org/2000/svg">
<path fill-rule="evenodd" clip-rule="evenodd" d="M11.948 2.19626C11.4861 2.06821 11.0002 2 10.5 2C7.75208 2 5.43982 4.05818 5.12139 6.78758L4.93104 8.41914C4.82273 9.34754 4.5079 10.2399 4.00967 11.0308L3.51356 11.8182L3.5058 11.8306L3.50579 11.8306C3.36278 12.0576 3.24443 12.2454 3.15854 12.4001C3.07273 12.5546 2.99367 12.7197 2.96123 12.8976C2.83339 13.5988 3.21658 14.2931 3.87795 14.5586C4.04577 14.626 4.22761 14.6471 4.40409 14.6569C4.58074 14.6667 4.80276 14.6667 5.07103 14.6667H5.07107H5.08563H15.9144H15.9289H15.929C16.1972 14.6667 16.4193 14.6667 16.5959 14.6569C16.7724 14.6471 16.9542 14.626 17.122 14.5586C17.7834 14.2931 18.1666 13.5988 18.0388 12.8976C18.0063 12.7197 17.9273 12.5546 17.8415 12.4001C17.7556 12.2454 17.6372 12.0576 17.4943 11.8306L17.4942 11.8305L17.4864 11.8182L16.9903 11.0307C16.7137 10.5916 16.4936 10.1212 16.334 9.63064C16.1413 9.65446 15.9463 9.66667 15.75 9.66667C15.597 9.66667 15.4447 9.65925 15.2938 9.6447C15.4823 10.3203 15.7682 10.967 16.1442 11.5638L16.6403 12.3513C16.7931 12.5937 16.8964 12.758 16.9672 12.8856C17.0397 13.0161 17.0528 13.0647 17.055 13.077C17.0976 13.3107 16.9699 13.5421 16.7494 13.6307C16.7379 13.6353 16.6897 13.6502 16.5407 13.6584C16.395 13.6665 16.2009 13.6667 15.9144 13.6667H5.08563C4.79912 13.6667 4.60499 13.6665 4.45932 13.6584C4.3103 13.6502 4.26213 13.6353 4.25059 13.6307C4.03013 13.5421 3.9024 13.3107 3.94501 13.077C3.94724 13.0647 3.96032 13.0161 4.03278 12.8856C4.10361 12.758 4.20693 12.5937 4.35965 12.3513L4.85576 11.5638C5.43358 10.6466 5.79869 9.61172 5.9243 8.53502L6.11465 6.90346C6.37428 4.6781 8.25954 3 10.5 3C10.8104 3 11.1141 3.03222 11.4075 3.09365C11.5539 2.7715 11.7361 2.47121 11.948 2.19626ZM14.5335 3.80185C14.2642 4.04993 14.0783 4.37962 14.0197 4.74908C14.3838 5.22912 14.6527 5.78753 14.7966 6.39785C15.0709 6.56788 15.3983 6.66667 15.75 6.66667C15.7878 6.66667 15.8254 6.66552 15.8627 6.66327C15.709 5.56474 15.2313 4.58009 14.5335 3.80185Z" fill="white"/>
<path d="M7.96444 14.7206C8.114 15.5179 8.44356 16.2225 8.902 16.7251C9.36044 17.2276 9.92215 17.5 10.5 17.5C11.0779 17.5 11.6396 17.2276 12.098 16.7251C12.5564 16.2225 12.886 15.5179 13.0356 14.7206" stroke="white" stroke-linecap="round"/>
<path d="M15.75 7.16665C16.9694 7.16665 18 6.2193 18 4.99998C18 3.78065 16.9694 2.83331 15.75 2.83331C14.5306 2.83331 13.5 3.78065 13.5 4.99998C13.5 6.2193 14.5306 7.16665 15.75 7.16665Z" fill="white" stroke="#33363F"/>
</svg>
