<svg width="15" height="15" viewBox="0 0 15 15" fill="none" xmlns="http://www.w3.org/2000/svg">
<path fill-rule="evenodd" clip-rule="evenodd" d="M7.14481 11.6C9.4346 11.6 11.2908 9.71961 11.2908 7.40001C11.2908 5.08042 9.4346 3.20001 7.14481 3.20001C4.85502 3.20001 2.99878 5.08042 2.99878 7.40001C2.99878 9.71961 4.85502 11.6 7.14481 11.6ZM6.17177 4.99616C6.48066 4.86655 6.81125 4.80001 7.14481 4.80001C7.42095 4.80001 7.64481 4.57615 7.64481 4.30001C7.64481 4.02387 7.42095 3.80001 7.14481 3.80001C6.67812 3.80001 6.21601 3.89313 5.78485 4.07405C5.35369 4.25496 4.96193 4.52014 4.63193 4.85443C4.30194 5.18872 4.04017 5.58558 3.86158 6.02235C3.68299 6.45912 3.59107 6.92725 3.59107 7.40001C3.59107 7.67616 3.81493 7.90001 4.09107 7.90001C4.36721 7.90001 4.59107 7.67616 4.59107 7.40001C4.59107 7.05679 4.65782 6.71723 4.78719 6.40083C4.91656 6.08444 5.10584 5.79781 5.3436 5.55695C5.58133 5.31612 5.86286 5.12578 6.17177 4.99616Z" fill="#000091" fill-opacity="0.25"/>
<path d="M12.1793 12.5L10.1063 10.4" stroke="#000091" stroke-linecap="round"/>
<path d="M11.3831 6.80002C11.3831 9.51234 9.21433 11.7 6.55253 11.7C3.89074 11.7 1.72192 9.51234 1.72192 6.80002C1.72192 4.08771 3.89074 1.90002 6.55253 1.90002C9.21433 1.90002 11.3831 4.08771 11.3831 6.80002Z" stroke="#000091"/>
</svg>
